# xmcd CD database file
#
# Track frame offsets:
#	150
#	6086
#	18667
#	30576
#	40675
#	49957
#	61151
#	69351
#	78058
#	86842
#	98998
#	106378
#	117054
#	127262
#	138612
#	147732
#
# Disc length: 2112 seconds
#
# Revision: 3
# Processed by: cddbd v1.5.2PL0 Copyright (c) Steve Scherf et al.
# Submitted via: CDex 1.51
#
DISCID=dd083e10
DTITLE=Jim Reeves - Anthologie of a Country Gentleman
DYEAR=2007
DGENRE=Country
TTITLE0=Have I Told You That I Love You
TTITLE1=Bimbo
TTITLE2=Mexican Joe
TTITLE3=He'll Have To Go
TTITLE4=Billy Bayou
TTITLE5=Am I Losing You ..
TTITLE6=Waiting For A Train
TTITLE7=Yonder Comes A Sucker
TTITLE8=According To My Heart
TTITLE9=Four Walls
TTITLE10=Blue Boy
TTITLE11=I Missed Me
TTITLE12=Anna Marie
TTITLE13=Penny Candy
TTITLE14=Home
TTITLE15=I love You More
EXTD=YEAR: 2007
EXTT0=
EXTT1=
EXTT2=
EXTT3=
EXTT4=
EXTT5=
EXTT6=
EXTT7=
EXTT8=
EXTT9=
EXTT10=
EXTT11=
EXTT12=
EXTT13=
EXTT14=
EXTT15=
PLAYORDER=
